<svg xmlns="http://www.w3.org/2000/svg" xmlns:xlink="http://www.w3.org/1999/xlink">
  <symbol id="icon-circle" viewBox="0 0 100 100">
    <circle cx="50" cy="50" r="40" stroke="green" stroke-width="4" fill="currentColor" />
  </symbol>

  <symbol id="icon-logo" viewBox="0 0 841.9 595.3">
    <g fill="#61DAFB"><path d="M666.3 296.5c0-32.5-40.7-63.3-103.1-82.4 14.4-63.6 8-114.2-20.2-130.4-6.5-3.8-14.1-5.6-22.4-5.6v22.3c4.6 0 8.3.9 11.4 2.6 13.6 7.8 19.5 37.5 14.9 75.7-1.1 9.4-2.9 19.3-5.1 29.4-19.6-4.8-41-8.5-63.5-10.9-13.5-18.5-27.5-35.3-41.6-50 32.6-30.3 63.2-46.9 84-46.9V78c-27.5 0-63.5 19.6-99.9 53.6-36.4-33.8-72.4-53.2-99.9-53.2v22.3c20.7 0 51.4 16.5 84 46.6-14 14.7-28 31.4-41.3 49.9-22.6 2.4-44 6.1-63.6 11-2.3-10-4-19.7-5.2-29-4.7-38.2 1.1-67.9 14.6-75.8 3-1.8 6.9-2.6 11.5-2.6V78.5c-8.4 0-16 1.8-22.6 5.6-28.1 16.2-34.4 66.7-19.9 130.1-62.2 19.2-102.7 49.9-102.7 82.3 0 32.5 40.7 63.3 103.1 82.4-14.4 63.6-8 114.2 20.2 130.4 6.5 3.8 14.1 5.6 22.5 5.6 27.5 0 63.5-19.6 99.9-53.6 36.4 33.8 72.4 53.2 99.9 53.2 8.4 0 16-1.8 22.6-5.6 28.1-16.2 34.4-66.7 19.9-130.1 62-19.1 102.5-49.9 102.5-82.3zm-130.2-66.7c-3.7 12.9-8.3 26.2-13.5 39.5-4.1-8-8.4-16-13.1-24-4.6-8-9.5-15.8-14.4-23.4 14.2 2.1 27.9 4.7 41 7.9zm-45.8 106.5c-7.8 13.5-15.8 26.3-24.1 38.2-14.9 1.3-30 2-45.2 2-15.1 0-30.2-.7-45-1.9-8.3-11.9-16.4-24.6-24.2-38-7.6-13.1-14.5-26.4-20.8-39.8 6.2-13.4 13.2-26.8 20.7-39.9 7.8-13.5 15.8-26.3 24.1-38.2 14.9-1.3 30-2 45.2-2 15.1 0 30.2.7 45 1.9 8.3 11.9 16.4 24.6 24.2 38 7.6 13.1 14.5 26.4 20.8 39.8-6.3 13.4-13.2 26.8-20.7 39.9zm32.3-13c5.4 13.4 10 26.8 13.8 39.8-13.1 3.2-26.9 5.9-41.2 8 4.9-7.7 9.8-15.6 14.4-23.7 4.6-8 8.9-16.1 13-24.1zM421.2 430c-9.3-9.6-18.6-20.3-27.8-32 9 .4 18.2.7 27.5.7 9.4 0 18.7-.2 27.8-.7-9 11.7-18.3 22.4-27.5 32zm-74.4-58.9c-14.2-2.1-27.9-4.7-41-7.9 3.7-12.9 8.3-26.2 13.5-39.5 4.1 8 8.4 16 13.1 24 4.7 8 9.5 15.8 14.4 23.4zM420.7 163c9.3 9.6 18.6 20.3 27.8 32-9-.4-18.2-.7-27.5-.7-9.4 0-18.7.2-27.8.7 9-11.7 18.3-22.4 27.5-32zm-74 58.9c-4.9 7.7-9.8 15.6-14.4 23.7-4.6 8-8.9 16-13 24-5.4-13.4-10-26.8-13.8-39.8 13.1-3.1 26.9-5.8 41.2-7.9zm-90.5 125.2c-35.4-15.1-58.3-34.9-58.3-50.6 0-15.7 22.9-35.6 58.3-50.6 8.6-3.7 18-7 27.7-10.1 5.7 19.6 13.2 40 22.5 60.9-9.2 20.8-16.6 41.1-22.2 60.6-9.9-3.1-19.3-6.5-28-10.2zM310 490c-13.6-7.8-19.5-37.5-14.9-75.7 1.1-9.4 2.9-19.3 5.1-29.4 19.6 4.8 41 8.5 63.5 10.9 13.5 18.5 27.5 35.3 41.6 50-32.6 30.3-63.2 46.9-84 46.9-4.5-.1-8.3-1-11.3-2.7zm237.2-76.2c4.7 38.2-1.1 67.9-14.6 75.8-3 1.8-6.9 2.6-11.5 2.6-20.7 0-51.4-16.5-84-46.6 14-14.7 28-31.4 41.3-49.9 22.6-2.4 44-6.1 63.6-11 2.3 10.1 4.1 19.8 5.2 29.1zm38.5-66.7c-8.6 3.7-18 7-27.7 10.1-5.7-19.6-13.2-40-22.5-60.9 9.2-20.8 16.6-41.1 22.2-60.6 9.9 3.1 19.3 6.5 28.1 10.2 35.4 15.1 58.3 34.9 58.3 50.6-.1 15.7-23 35.6-58.4 50.6zM320.8 78.4z"/><circle fill="currentColor" cx="420.9" cy="296.5" r="45.7"/><path d="M520.5 78.1z"/></g></symbol>


    <symbol id="unused-setting" viewBox="0 0 36 36">
    <g fill="white" fill-rule="evenodd"><path d="M0 0h24v24H0z" /><path d="m11.19 2.965.026.096v1.332c.485.121.952.3 1.39.534l.26.147.943-.932a.57.57 0 0 1 .56-.09l.09.043 1.537 1.649c.114.163.13.372.05.548l-.05.085-.943.933c.256.422.457.874.6 1.345l.08.285h1.338a.58.58 0 0 1 .339.165c-.48.216-.923.437-1.334.664h-.759a.618.618 0 0 1-.518-.494.16.16 0 0 0 0-.066 5.222 5.222 0 0 0-.65-1.565.21.21 0 0 0 0-.111.598.598 0 0 1-.05-.572l.05-.09.942-.931-.942-.932-.887.876a.598.598 0 0 1-.65.055l-.084-.055h-.105a5.351 5.351 0 0 0-1.283-.562l-.273-.071h-.083a.584.584 0 0 1-.488-.443l-.013-.089V3.462H8.859v1.407a.614.614 0 0 1-.408.46l-.091.024h-.085c-.459.104-.9.27-1.311.492l-.244.14h-.113a.6.6 0 0 1-.651.056l-.085-.055-.886-.875-.943.931.943.932a.59.59 0 0 1 0 .652.227.227 0 0 0 0 .093 5.309 5.309 0 0 0-.68 1.612.597.597 0 0 1-.413.472l-.094.022H2.496v1.304h1.33a.6.6 0 0 1 .509.494c.11.485.288.953.528 1.39l.15.258v.075a.592.592 0 0 1 .055.597l-.054.092-.944.932.944.93.942-.93a.612.612 0 0 1 .642-.053l.084.053h.076a5.29 5.29 0 0 0 1.336.58l.285.072h.056a.61.61 0 0 1 .475.394l.025.09v1.304h1.423V16.15a.58.58 0 0 1 .412-.512l.088-.02h.076a5.78 5.78 0 0 0 1.132-.404c.017.324.073.643.163.954a6.13 6.13 0 0 1-.743.285l-.345.097v1.388a.574.574 0 0 1-.541.478l-.09-.003H8.624a.6.6 0 0 1-.444-.137.583.583 0 0 1-.193-.318l-.013-.094v-1.305a6.49 6.49 0 0 1-1.336-.5l-.315-.17-.942.931a.59.59 0 0 1-.691.006l-.073-.061-1.405-1.39a.57.57 0 0 1-.057-.686l.057-.076.943-.932a6.087 6.087 0 0 1-.6-1.354l-.079-.286-1.367.02a.59.59 0 0 1-.516-.525l-.002-.09V9.581a.573.573 0 0 1 .423-.653l.095-.017h1.367c.12-.479.299-.94.532-1.374l.147-.257-.943-.93a.574.574 0 0 1-.112-.544l.037-.091L4.74 4.132a.575.575 0 0 1 .563-.05l.088.05 1.008.979c.411-.244.85-.44 1.305-.583l.345-.097V3.145a.59.59 0 0 1 .206-.414.61.61 0 0 1 .348-.145h1.982a.584.584 0 0 1 .605.38Zm.537 5.403a2.955 2.955 0 0 1 .666 3.252 3.014 3.014 0 0 1-2.789 1.846c-1.654 0-3.001-1.317-3.016-2.952A2.98 2.98 0 0 1 8.43 7.74a3.043 3.043 0 0 1 3.297.628Zm-2.123.031c-.565 0-1.106.224-1.502.62a2.072 2.072 0 0 0-.61 1.495c.01 1.156.967 2.085 2.137 2.077 1.17-.009 2.113-.951 2.106-2.108-.007-1.157-.96-2.088-2.13-2.084Z" fill="currentColor" fill-rule="nonzero" /><path d="M21.824 15.527s-2.348 8.23-6.532 4.191l4.114-2.704-4.321 2.407s-1.905-5.305 6.74-3.894ZM19.686 9.27s.592 4.848 0 5.668h-.243c-.702.006-2.73.094-3.418.855l1.657-3.126-3.33 5.123s-5.228-4.741 5.334-8.52Z" fill="currentColor" /></g>
  </symbol>
</svg>
