<svg xmlns="http://www.w3.org/2000/svg" viewBox="0 0 24 24"><title>SettingsEco2</title><g fill="none" fill-rule="evenodd"><path d="M0 0h24v24H0z" /><path d="m11.19 2.965.026.096v1.332c.485.121.952.3 1.39.534l.26.147.943-.932a.57.57 0 0 1 .56-.09l.09.043 1.537 1.649c.114.163.13.372.05.548l-.05.085-.943.933c.256.422.457.874.6 1.345l.08.285h1.338a.58.58 0 0 1 .339.165c-.48.216-.923.437-1.334.664h-.759a.618.618 0 0 1-.518-.494.16.16 0 0 0 0-.066 5.222 5.222 0 0 0-.65-1.565.21.21 0 0 0 0-.111.598.598 0 0 1-.05-.572l.05-.09.942-.931-.942-.932-.887.876a.598.598 0 0 1-.65.055l-.084-.055h-.105a5.351 5.351 0 0 0-1.283-.562l-.273-.071h-.083a.584.584 0 0 1-.488-.443l-.013-.089V3.462H8.859v1.407a.614.614 0 0 1-.408.46l-.091.024h-.085c-.459.104-.9.27-1.311.492l-.244.14h-.113a.6.6 0 0 1-.651.056l-.085-.055-.886-.875-.943.931.943.932a.59.59 0 0 1 0 .652.227.227 0 0 0 0 .093 5.309 5.309 0 0 0-.68 1.612.597.597 0 0 1-.413.472l-.094.022H2.496v1.304h1.33a.6.6 0 0 1 .509.494c.11.485.288.953.528 1.39l.15.258v.075a.592.592 0 0 1 .055.597l-.054.092-.944.932.944.93.942-.93a.612.612 0 0 1 .642-.053l.084.053h.076a5.29 5.29 0 0 0 1.336.58l.285.072h.056a.61.61 0 0 1 .475.394l.025.09v1.304h1.423V16.15a.58.58 0 0 1 .412-.512l.088-.02h.076a5.78 5.78 0 0 0 1.132-.404c.017.324.073.643.163.954a6.13 6.13 0 0 1-.743.285l-.345.097v1.388a.574.574 0 0 1-.541.478l-.09-.003H8.624a.6.6 0 0 1-.444-.137.583.583 0 0 1-.193-.318l-.013-.094v-1.305a6.49 6.49 0 0 1-1.336-.5l-.315-.17-.942.931a.59.59 0 0 1-.691.006l-.073-.061-1.405-1.39a.57.57 0 0 1-.057-.686l.057-.076.943-.932a6.087 6.087 0 0 1-.6-1.354l-.079-.286-1.367.02a.59.59 0 0 1-.516-.525l-.002-.09V9.581a.573.573 0 0 1 .423-.653l.095-.017h1.367c.12-.479.299-.94.532-1.374l.147-.257-.943-.93a.574.574 0 0 1-.112-.544l.037-.091L4.74 4.132a.575.575 0 0 1 .563-.05l.088.05 1.008.979c.411-.244.85-.44 1.305-.583l.345-.097V3.145a.59.59 0 0 1 .206-.414.61.61 0 0 1 .348-.145h1.982a.584.584 0 0 1 .605.38Zm.537 5.403a2.955 2.955 0 0 1 .666 3.252 3.014 3.014 0 0 1-2.789 1.846c-1.654 0-3.001-1.317-3.016-2.952A2.98 2.98 0 0 1 8.43 7.74a3.043 3.043 0 0 1 3.297.628Zm-2.123.031c-.565 0-1.106.224-1.502.62a2.072 2.072 0 0 0-.61 1.495c.01 1.156.967 2.085 2.137 2.077 1.17-.009 2.113-.951 2.106-2.108-.007-1.157-.96-2.088-2.13-2.084Z" fill="#FFF" fill-rule="nonzero" /><path d="M21.824 15.527s-2.348 8.23-6.532 4.191l4.114-2.704-4.321 2.407s-1.905-5.305 6.74-3.894ZM19.686 9.27s.592 4.848 0 5.668h-.243c-.702.006-2.73.094-3.418.855l1.657-3.126-3.33 5.123s-5.228-4.741 5.334-8.52Z" fill="#48B755" /></g></svg>
